<?xml version="1.0" encoding="iso-8859-1"?>
<!-- Generator: Adobe Illustrator 19.0.0, SVG Export Plug-In . SVG Version: 6.00 Build 0)  -->
<svg version="1.1" id="Capa_1" xmlns="http://www.w3.org/2000/svg" xmlns:xlink="http://www.w3.org/1999/xlink" x="0px" y="0px"
	 viewBox="0 0 512 512" style="enable-background:new 0 0 512 512;" xml:space="preserve">
<path style="fill:#FFCD54;" d="M512,256c0,141.397-114.603,256-256,256S0,397.397,0,256S114.603,0,256,0S512,114.613,512,256z"/>
<path style="fill:#F4BA41;" d="M387.264,169.653l-20.437-20.032l-0.437-0.149c-0.549-0.756-1.155-1.47-1.813-2.133
	c-5.047-4.853-12.293-6.66-19.029-4.747l-0.299-0.096l-22.272-22.155h-0.256c-2.043-2.789-4.803-4.972-7.989-6.315
	c-8.681-3.408-18.562-0.243-23.648,7.573l-1.547,2.485c-0.4,0.622-0.923,1.155-1.536,1.568l-0.459,0.075l-16.213-15.605
	c-1.212-1.575-2.65-2.963-4.267-4.117l-1.067-0.971l-0.192-0.192l-0.224,0.235c-2.906-1.728-6.219-2.652-9.6-2.677
	c-9.311,0.164-17.225,6.848-18.944,16l-0.48,2.901c-0.659,2.47-2.546,4.427-4.992,5.173l-2.453,0.491
	c-2.545,0.24-5.037-0.838-6.603-2.859l-1.589-2.507c-5.673-9.008-17.573-11.712-26.581-6.039
	c-6.922,4.359-10.339,12.612-8.523,20.589l0.661,2.859c0.324,2.526-0.66,5.043-2.613,6.677c-0.704,0.448-1.408,0.917-2.133,1.397
	c-2.265,1.201-4.987,1.157-7.211-0.117l-2.4-1.717c-8.682-6.161-20.713-4.117-26.874,4.563c-4.743,6.684-4.741,15.635,0.004,22.317
	l1.717,2.389c1.27,2.226,1.311,4.948,0.107,7.211l-1.376,2.048c-1.617,1.993-4.157,2.995-6.699,2.645l-2.859-0.661
	c-10.354-2.447-20.732,3.963-23.179,14.317c-1.909,8.08,1.572,16.474,8.64,20.83l2.496,1.557c2.025,1.564,3.107,4.055,2.869,6.603
	l-0.48,2.432c-0.751,2.448-2.703,4.339-5.173,5.013l-2.901,0.48c-10.459,1.749-17.519,11.645-15.77,22.103
	c0.835,4.993,3.609,9.455,7.716,12.414l-0.149,0.16l14.837,17.067c-0.277,0.322-0.596,0.606-0.949,0.843l-2.496,1.504
	c-7.826,5.132-10.949,15.069-7.467,23.755c1.333,3.156,3.502,5.889,6.272,7.904l0,0l-0.075,0.171l22.475,21.995
	c-2.186,6.829-0.505,14.306,4.395,19.541l-0.128,0.267l65.621,65.152l79.424,79.573c112.791-16.108,201.379-104.791,217.365-217.6
	L387.264,169.653z"/>
<g>
	<path style="fill:#F4F6F9;" d="M267.883,186.581c-38.339-6.56-74.736,19.202-81.296,57.541
		c-6.56,38.339,19.202,74.736,57.541,81.296c3.952,0.656,7.951,0.988,11.957,0.992c38.881-0.031,70.374-31.575,70.343-70.457
		c-0.003-3.964-0.341-7.92-1.01-11.826C320.332,214.713,297.297,191.674,267.883,186.581z M296.683,296.736
		c-22.498,22.491-58.969,22.484-81.459-0.014c-22.491-22.498-22.484-58.969,0.014-81.459c10.812-10.806,25.475-16.874,40.763-16.863
		c3.295,0.002,6.585,0.273,9.835,0.811c31.35,5.398,52.388,35.189,46.989,66.54c-2.021,11.737-7.631,22.558-16.055,30.975
		L296.683,296.736z"/>
	<path style="fill:#F4F6F9;" d="M393.6,237.003l-2.891-0.48c-2.477-0.673-4.434-2.57-5.184-5.024l-0.48-2.421
		c-0.238-2.547,0.845-5.039,2.869-6.603l2.485-1.547c9.006-5.676,11.706-17.578,6.03-26.583
		c-4.356-6.913-12.599-10.327-20.569-8.521l-2.869,0.661c-2.602,0.329-5.185-0.733-6.805-2.795l-1.269-1.899
		c-1.217-2.259-1.177-4.988,0.107-7.211l1.717-2.4c6.153-8.687,4.097-20.717-4.59-26.869c-6.674-4.727-15.605-4.727-22.279,0
		l-2.389,1.717c-2.221,1.27-4.939,1.314-7.2,0.117c-0.693-0.48-1.397-0.949-2.059-1.376c-1.971-1.632-2.97-4.16-2.645-6.699
		l0.661-2.869c2.485-10.351-3.89-20.757-14.241-23.243c-8.107-1.947-16.547,1.539-20.916,8.64l-1.547,2.485
		c-1.572,2.031-4.079,3.11-6.635,2.859l-2.411-0.48c-2.448-0.751-4.339-2.703-5.013-5.173l-0.48-2.901
		c-1.799-10.492-11.763-17.539-22.255-15.74c-8.052,1.381-14.358,7.687-15.74,15.74l-0.48,2.901
		c-0.659,2.47-2.546,4.427-4.992,5.173l-2.453,0.491c-2.545,0.24-5.037-0.838-6.603-2.859l-1.557-2.496
		c-5.673-9.008-17.573-11.712-26.581-6.039c-6.922,4.359-10.339,12.612-8.523,20.589l0.661,2.859
		c0.324,2.526-0.66,5.043-2.613,6.677c-0.704,0.448-1.408,0.917-2.133,1.397c-2.265,1.201-4.987,1.157-7.211-0.117l-2.4-1.717
		c-8.682-6.161-20.713-4.117-26.874,4.563c-4.743,6.684-4.741,15.635,0.004,22.317l1.717,2.389c1.27,2.226,1.311,4.948,0.107,7.211
		l-1.376,2.048c-1.617,1.993-4.157,2.995-6.699,2.645l-2.859-0.661c-10.354-2.447-20.732,3.963-23.179,14.317
		c-1.909,8.08,1.572,16.474,8.64,20.83l2.496,1.557c2.025,1.564,3.107,4.055,2.869,6.603l-0.48,2.432
		c-0.751,2.448-2.703,4.339-5.173,5.013l-2.901,0.48c-10.492,1.799-17.539,11.763-15.74,22.255
		c1.381,8.052,7.687,14.358,15.74,15.74l2.891,0.48c2.477,0.672,4.434,2.57,5.184,5.024l0.48,2.421
		c0.238,2.547-0.845,5.039-2.869,6.603l-2.496,1.568c-9.006,5.676-11.706,17.578-6.03,26.583
		c4.356,6.913,12.599,10.327,20.569,8.521l2.869-0.661c2.604-0.325,5.187,0.739,6.805,2.805l1.269,1.899
		c1.217,2.259,1.177,4.988-0.107,7.211l-1.717,2.4c-6.153,8.687-4.097,20.717,4.59,26.869c6.674,4.727,15.605,4.727,22.279,0
		l2.389-1.717c2.222-1.27,4.939-1.314,7.2-0.117c0.693,0.48,1.397,0.949,2.059,1.376c1.971,1.632,2.97,4.16,2.645,6.699
		l-0.661,2.869c-2.466,10.355,3.929,20.75,14.284,23.216c8.092,1.927,16.508-1.554,20.874-8.635l1.557-2.485
		c1.562-2.038,4.069-3.121,6.624-2.859l2.411,0.48c2.448,0.751,4.339,2.703,5.013,5.173l0.48,2.901
		c1.799,10.492,11.763,17.539,22.255,15.74c8.052-1.381,14.358-7.687,15.74-15.74l0.48-2.901c0.659-2.47,2.546-4.427,4.992-5.173
		l2.453-0.491c2.545-0.24,5.037,0.838,6.603,2.859l1.557,2.507c5.669,9.01,17.569,11.718,26.579,6.049
		c6.931-4.362,10.35-12.626,8.525-20.609l-0.661-2.859c-0.324-2.526,0.66-5.043,2.613-6.677c0.704-0.448,1.408-0.917,2.133-1.397
		c2.265-1.201,4.987-1.157,7.211,0.117l2.4,1.717c8.682,6.161,20.713,4.117,26.874-4.563c4.743-6.684,4.741-15.635-0.004-22.317
		l-1.717-2.389c-1.27-2.226-1.311-4.948-0.107-7.211l1.376-2.048c1.617-1.993,4.157-2.995,6.699-2.645l2.859,0.661
		c10.354,2.447,20.732-3.963,23.179-14.317c1.909-8.08-1.572-16.474-8.64-20.83l-2.496-1.557c-2.025-1.564-3.107-4.055-2.869-6.603
		l0.48-2.432c0.751-2.448,2.703-4.339,5.173-5.013l2.901-0.48c9.149-1.718,15.831-9.627,16-18.933v-0.128
		C409.426,246.639,402.748,238.726,393.6,237.003z M396.8,256.064c-0.185,3.053-2.354,5.621-5.333,6.315l-2.901,0.48
		c-7.791,1.517-13.938,7.514-15.648,15.264l-0.437,2.197c-1.369,7.806,2.015,15.682,8.619,20.064l2.496,1.557
		c2.989,1.952,3.829,5.957,1.877,8.946c-1.461,2.238-4.149,3.345-6.763,2.787l-2.869-0.661c-7.81-1.571-15.808,1.648-20.352,8.192
		l-1.173,1.749c-4.284,6.691-4.183,15.289,0.256,21.877l1.707,2.389c2.055,2.926,1.348,6.964-1.578,9.02
		c-2.23,1.566-5.203,1.568-7.436,0.004l-2.4-1.717c-6.593-4.438-15.193-4.539-21.888-0.256l-1.845,1.227
		c-6.475,4.556-9.646,12.506-8.085,20.267l0.661,2.859c0.717,3.503-1.541,6.925-5.045,7.642c-2.582,0.529-5.228-0.561-6.688-2.756
		l-1.557-2.496c-4.367-6.615-12.249-10.002-20.053-8.619l-2.208,0.437c-7.754,1.709-13.754,7.856-15.275,15.648l-0.48,2.987
		c-0.542,3.535-3.845,5.961-7.38,5.42c-2.797-0.429-4.991-2.623-5.42-5.42l-0.48-2.901c-1.522-7.798-7.526-13.949-15.285-15.659
		l-2.133-0.427c-1.14-0.237-2.302-0.354-3.467-0.352c-6.683,0.045-12.907,3.406-16.608,8.971l-1.547,2.485
		c-1.986,2.974-6.006,3.774-8.98,1.788c-2.179-1.456-3.266-4.081-2.753-6.652l0.661-2.869c1.554-7.767-1.631-15.719-8.117-20.267
		l-1.824-1.216c-6.693-4.281-15.291-4.176-21.877,0.267l-2.464,1.632c-2.934,2.044-6.97,1.322-9.013-1.613
		c-1.549-2.224-1.549-5.177,0-7.401l1.717-2.4c4.443-6.589,4.543-15.187,0.256-21.877l-1.237-1.845
		c-4.551-6.48-12.503-9.658-20.267-8.096l-2.88,0.672c-3.506,0.7-6.917-1.575-7.617-5.082c-0.513-2.57,0.574-5.196,2.753-6.652
		l2.485-1.547c6.604-4.382,9.987-12.258,8.619-20.064l-0.437-2.197c-1.711-7.756-7.862-13.757-15.659-15.275l-2.912-0.491
		c-3.535-0.542-5.961-3.845-5.42-7.38c0.429-2.797,2.623-4.991,5.42-5.42l2.901-0.48c7.791-1.517,13.938-7.514,15.648-15.264
		l0.437-2.197c1.369-7.806-2.015-15.682-8.619-20.064l-2.496-1.557c-2.519-1.81-3.53-5.072-2.475-7.989
		c1.325-2.771,4.337-4.316,7.36-3.776l2.869,0.661c7.811,1.574,15.81-1.645,20.352-8.192l1.173-1.749
		c4.284-6.691,4.183-15.289-0.256-21.877l-1.707-2.389c-2.055-2.926-1.348-6.964,1.578-9.02c2.23-1.566,5.203-1.568,7.436-0.004
		l2.4,1.717c6.592,4.442,15.194,4.542,21.888,0.256l1.845-1.227c6.475-4.556,9.646-12.506,8.085-20.267l-0.661-2.859
		c-0.717-3.503,1.541-6.925,5.045-7.642c2.582-0.529,5.228,0.561,6.688,2.756l1.557,2.496c4.365,6.618,12.247,10.005,20.053,8.619
		l2.208-0.437c7.754-1.709,13.754-7.856,15.275-15.648l0.48-2.933c0.542-3.535,3.845-5.961,7.38-5.42
		c2.797,0.429,4.991,2.623,5.42,5.42l0.48,2.901c1.522,7.798,7.526,13.949,15.285,15.659l2.133,0.427
		c7.808,1.361,15.683-2.02,20.075-8.619l1.547-2.485c1.984-2.975,6.003-3.779,8.979-1.795c2.187,1.458,3.276,4.094,2.754,6.67
		l-0.661,2.869c-1.554,7.767,1.631,15.719,8.117,20.267l1.824,1.216c6.693,4.281,15.291,4.176,21.877-0.267l2.4-1.717
		c2.934-2.044,6.97-1.322,9.013,1.613c1.549,2.224,1.549,5.177,0,7.401l-1.717,2.4c-4.443,6.589-4.543,15.187-0.256,21.877
		l1.237,1.845c4.551,6.48,12.503,9.658,20.267,8.096l2.88-0.672c3.507-0.7,6.917,1.575,7.617,5.082
		c0.513,2.57-0.574,5.196-2.753,6.652l-2.485,1.547c-6.604,4.382-9.987,12.258-8.619,20.064l0.437,2.197
		c1.711,7.756,7.862,13.757,15.659,15.275l2.976,0.565c2.979,0.693,5.149,3.262,5.333,6.315V256.064z"/>
</g>
<g>
</g>
<g>
</g>
<g>
</g>
<g>
</g>
<g>
</g>
<g>
</g>
<g>
</g>
<g>
</g>
<g>
</g>
<g>
</g>
<g>
</g>
<g>
</g>
<g>
</g>
<g>
</g>
<g>
</g>
</svg>
